Coordinates
version=1
nRows=34
nColumns=38
inDegrees=no

Units are S.I. units (second, meters, Newtons, ...)
If the header above contains a line with 'inDegrees', this indicates whether rotational values are in degrees (yes) or radians (no).

endheader
time	pelvis_tilt	pelvis_list	pelvis_rotation	pelvis_tx	pelvis_ty	pelvis_tz	hip_flexion_r	hip_adduction_r	hip_rotation_r	knee_angle_r	ankle_angle_r	subtalar_angle_r	mtp_angle_r	hip_flexion_l	hip_adduction_l	hip_rotation_l	knee_angle_l	ankle_angle_l	subtalar_angle_l	mtp_angle_l	lumbar_extension	lumbar_bending	lumbar_rotation	arm_flex_r	arm_add_r	arm_rot_r	elbow_flex_r	pro_sup_r	wrist_flex_r	wrist_dev_r	arm_flex_l	arm_add_l	arm_rot_l	elbow_flex_l	pro_sup_l	wrist_flex_l	wrist_dev_l
30	2.94022	1.46267	-1.38147	0.67114	0.267561	0.849128	0.392057	-0.215795	-0.245835	1.02437	0.335413	0	0	0.397377	-0.227414	-0.18815	0.9722	0.32016	0	0	-0.566931	-0.0379202	0.026732	0.485097	-0.40301	0.2716	0.434445	0.727419	0	0	0.485825	-0.337485	0.0165492	0.595574	1.3747	0	0
30.01	3.05235	1.46418	-1.48435	0.670982	0.268306	0.842516	0.41108	-0.211628	-0.196193	1.06123	0.35823	0	0	0.414141	-0.215236	-0.180466	1.00202	0.33467	0	0	-0.569578	-0.0479381	0.0141093	0.487405	-0.406712	0.269438	0.440478	0.707492	0	0	0.493811	-0.348309	0.0392206	0.601053	1.31063	0	0
30.02	3.05713	1.46616	-1.48833	0.670911	0.266978	0.836848	0.431528	-0.213767	-0.187909	1.09052	0.368279	0	0	0.434882	-0.21576	-0.172558	1.03131	0.345186	0	0	-0.576105	-0.0485675	0.0129597	0.498838	-0.414069	0.268968	0.444793	0.701143	0	0	0.506926	-0.351528	0.0425101	0.60134	1.29379	0	0
30.03	3.0584	1.46768	-1.48826	0.670798	0.265663	0.831095	0.450993	-0.21573	-0.180851	1.11956	0.379018	0	0	0.455669	-0.216262	-0.16372	1.06094	0.355364	0	0	-0.583143	-0.0484026	0.0115184	0.510902	-0.421479	0.269026	0.448563	0.695619	0	0	0.520532	-0.354485	0.0459826	0.601919	1.27625	0	0
30.04	3.05996	1.46894	-1.48905	0.670732	0.264342	0.825214	0.470577	-0.217172	-0.172858	1.14935	0.391882	0	0	0.476315	-0.216914	-0.155452	1.09083	0.365267	0	0	-0.590517	-0.0483519	0.0105789	0.523441	-0.428999	0.269426	0.452246	0.690895	0	0	0.534299	-0.357245	0.0488933	0.602445	1.26079	0	0
30.05	3.06149	1.46962	-1.49046	0.670672	0.26303	0.81928	0.489897	-0.218199	-0.164015	1.17934	0.405426	0	0	0.495724	-0.217678	-0.147986	1.1199	0.375336	0	0	-0.598424	-0.0483079	0.0101133	0.536385	-0.436847	0.271842	0.4562	0.685774	0	0	0.548093	-0.359826	0.0515546	0.603063	1.24726	0	0
30.06	2.96395	1.48037	-1.40524	0.670844	0.259094	0.813175	0.5274	-0.225993	-0.182601	1.20485	0.397772	0	0	0.529638	-0.228736	-0.142253	1.14941	0.380674	0	0	-0.600997	-0.0442286	0.0230777	0.558428	-0.44924	0.280546	0.459861	0.680552	0	0	0.56578	-0.35697	0.0498042	0.603761	1.22584	0	0
30.07	3.06842	1.47129	-1.4959	0.67023	0.260338	0.807244	0.529207	-0.222152	-0.148696	1.23678	0.419352	0	0	0.534762	-0.216884	-0.132081	1.17658	0.394841	0	0	-0.614533	-0.0474562	0.00836499	0.563329	-0.453127	0.278186	0.463373	0.678793	0	0	0.576448	-0.363879	0.0591213	0.607429	1.21031	0	0
30.08	3.07085	1.47255	-1.49647	0.669872	0.259058	0.801097	0.548699	-0.224711	-0.141953	1.26608	0.431152	0	0	0.555029	-0.215602	-0.123325	1.20484	0.403489	0	0	-0.622049	-0.0461626	0.00696191	0.576901	-0.461206	0.281691	0.466626	0.677424	0	0	0.590514	-0.365256	0.0620378	0.609734	1.19613	0	0
30.09	3.07819	1.47426	-1.50164	0.669399	0.257767	0.794894	0.568435	-0.228771	-0.136743	1.29331	0.435931	0	0	0.575806	-0.213299	-0.114651	1.23296	0.411268	0	0	-0.629404	-0.0449447	0.00499875	0.591008	-0.469544	0.286132	0.469852	0.675026	0	0	0.604898	-0.366123	0.0647875	0.612599	1.18025	0	0
30.1	3.08688	1.47595	-1.50838	0.668951	0.256482	0.788732	0.587649	-0.232792	-0.131529	1.31957	0.441266	0	0	0.596201	-0.210814	-0.106382	1.26028	0.419173	0	0	-0.636808	-0.0439252	0.00315164	0.60509	-0.477475	0.289709	0.473321	0.671308	0	0	0.619309	-0.366926	0.0673141	0.615697	1.16658	0	0
30.11	2.98281	1.48534	-1.41654	0.669056	0.252622	0.782807	0.621276	-0.239024	-0.148421	1.34028	0.435899	0	0	0.627311	-0.222069	-0.100983	1.28652	0.423051	0	0	-0.641356	-0.0395313	0.0169761	0.62875	-0.489318	0.296017	0.47666	0.668166	0	0	0.637315	-0.362919	0.0654314	0.618846	1.14865	0	0
30.12	2.92255	1.43701	-1.34188	0.670909	0.255108	0.782809	0.559687	-0.204506	-0.140634	1.34399	0.458599	0	0	0.587201	-0.245698	-0.0893337	1.30305	0.43735	0	0	-0.694455	-0.0236688	0.0169259	0.635698	-0.490297	0.290415	0.47984	0.668591	0	0	0.653549	-0.370075	0.0757806	0.622807	1.1399	0	0
30.13	2.84003	1.45026	-1.27677	0.671588	0.250824	0.776292	0.603615	-0.208835	-0.14955	1.36879	0.455309	0	0	0.622758	-0.258948	-0.0893442	1.32908	0.439853	0	0	-0.694621	-0.0246806	0.0341462	0.659787	-0.502787	0.299648	0.483646	0.671014	0	0	0.67218	-0.366138	0.075628	0.626804	1.1192	0	0
30.14	2.92014	1.43793	-1.33672	0.670281	0.252517	0.771055	0.593445	-0.211469	-0.133484	1.3946	0.475014	0	0	0.623436	-0.245754	-0.0760946	1.35375	0.451964	0	0	-0.712361	-0.0204883	0.0169777	0.663476	-0.506156	0.29556	0.488143	0.673068	0	0	0.683279	-0.370546	0.0846317	0.63129	1.1083	0	0
30.15	2.84246	1.4531	-1.27741	0.670929	0.248217	0.764341	0.640367	-0.215769	-0.139218	1.41837	0.467178	0	0	0.660575	-0.258022	-0.0772624	1.37915	0.453275	0	0	-0.710498	-0.0230898	0.0339012	0.687392	-0.518005	0.304661	0.493151	0.673828	0	0	0.700849	-0.36648	0.0852883	0.63701	1.08377	0	0
30.16	2.92073	1.44	-1.33563	0.669541	0.249874	0.7593	0.628764	-0.219124	-0.12491	1.4424	0.482881	0	0	0.660354	-0.244146	-0.0636734	1.40316	0.464303	0	0	-0.728996	-0.0177592	0.0171808	0.691026	-0.521119	0.29992	0.498699	0.675566	0	0	0.711229	-0.370282	0.0946784	0.643093	1.07024	0	0
30.17	2.84046	1.45601	-1.27425	0.670305	0.245672	0.752521	0.676717	-0.22359	-0.131295	1.46497	0.47081	0	0	0.698189	-0.256818	-0.0647286	1.42783	0.464372	0	0	-0.725985	-0.0209983	0.0345155	0.714361	-0.532465	0.307498	0.504662	0.676357	0	0	0.727608	-0.366746	0.0980476	0.65148	1.03593	0	0
30.18	2.90482	1.44166	-1.31958	0.669161	0.247313	0.747775	0.662679	-0.22414	-0.118706	1.48769	0.490583	0	0	0.696645	-0.245799	-0.0512576	1.45078	0.474667	0	0	-0.745544	-0.0141194	0.0200616	0.717902	-0.535187	0.300433	0.511248	0.67923	0	0	0.737641	-0.370453	0.107525	0.659669	1.0156	0	0
30.19	2.89362	1.44182	-1.3103	0.669362	0.246076	0.742233	0.678248	-0.223838	-0.114379	1.50852	0.496442	0	0	0.712669	-0.248828	-0.0466887	1.47296	0.480272	0	0	-0.754409	-0.0135266	0.0230728	0.731063	-0.541137	0.298633	0.517894	0.681846	0	0	0.75076	-0.370319	0.111346	0.668417	0.992271	0	0
30.2	2.88141	1.44125	-1.29807	0.669198	0.244851	0.736884	0.691793	-0.225343	-0.112389	1.52828	0.501949	0	0	0.728496	-0.249595	-0.039752	1.49473	0.485293	0	0	-0.764104	-0.0111397	0.0247657	0.744245	-0.546904	0.295334	0.525124	0.684751	0	0	0.763822	-0.370119	0.117177	0.676468	0.973568	0	0
30.21	2.86934	1.43914	-1.28606	0.669016	0.243607	0.731882	0.703072	-0.226419	-0.110857	1.54681	0.506584	0	0	0.742143	-0.250463	-0.0328165	1.51541	0.489602	0	0	-0.775648	-0.00837635	0.026653	0.758245	-0.55288	0.294656	0.532278	0.687315	0	0	0.777265	-0.369911	0.123397	0.683869	0.963026	0	0
30.22	2.78449	1.45838	-1.22301	0.670111	0.239404	0.72505	0.754917	-0.227272	-0.111844	1.56637	0.496416	0	0	0.78142	-0.262994	-0.035809	1.53655	0.488565	0	0	-0.769066	-0.0157031	0.0444172	0.780791	-0.561848	0.297013	0.539171	0.698048	0	0	0.792961	-0.366933	0.128758	0.692693	0.946067	0	0
30.23	2.84085	1.44056	-1.25948	0.668935	0.241	0.721417	0.733728	-0.227052	-0.104053	1.58445	0.514676	0	0	0.775251	-0.251967	-0.0206134	1.55613	0.497001	0	0	-0.792903	-0.00523629	0.0313244	0.784701	-0.563246	0.28908	0.54677	0.70606	0	0	0.803828	-0.3702	0.140513	0.700225	0.940878	0	0
30.24	2.82251	1.44372	-1.24325	0.669072	0.239633	0.716005	0.752713	-0.226063	-0.0987185	1.60313	0.517291	0	0	0.794623	-0.252774	-0.014955	1.57638	0.499089	0	0	-0.798832	-0.0047484	0.0340036	0.797558	-0.569648	0.296224	0.55694	0.689809	0	0	0.816759	-0.370529	0.148741	0.708689	0.930297	0	0
30.25	2.80248	1.44628	-1.22572	0.669306	0.238293	0.710849	0.77062	-0.22391	-0.0933911	1.62073	0.519671	0	0	0.812845	-0.253825	-0.0092475	1.59564	0.500795	0	0	-0.805329	-0.00442406	0.037025	0.810598	-0.574674	0.299016	0.565936	0.688839	0	0	0.82966	-0.370594	0.155171	0.717345	0.925428	0	0
30.26	2.78562	1.44711	-1.20919	0.669132	0.236966	0.70608	0.784733	-0.223872	-0.0905343	1.63672	0.522747	0	0	0.829035	-0.251972	-0.0017152	1.61369	0.502505	0	0	-0.813721	-0.00213335	0.0384779	0.824615	-0.579224	0.301542	0.573924	0.693621	0	0	0.842674	-0.369849	0.159239	0.724882	0.932354	0	0
30.27	2.77081	1.47079	-1.20498	0.66919	0.234418	0.698411	0.833392	-0.226332	-0.0743142	1.65785	0.523519	0	0	0.868415	-0.245843	-0.00428275	1.63434	0.50132	0	0	-0.80028	-0.0119172	0.0404548	0.839404	-0.586157	0.315086	0.58474	0.670215	0	0	0.853767	-0.370138	0.170346	0.734973	0.909828	0	0
30.28	2.74681	1.47031	-1.18206	0.669138	0.233201	0.693997	0.845307	-0.22494	-0.0723497	1.67235	0.523599	0	0	0.882251	-0.245429	0.00274373	1.65119	0.502947	0	0	-0.809563	-0.00953901	0.0424289	0.853497	-0.589788	0.320934	0.593947	0.661404	0	0	0.866176	-0.370965	0.181266	0.744369	0.899744	0	0
30.29	2.72214	1.45194	-1.15011	0.669009	0.233117	0.692034	0.830327	-0.220295	-0.0805062	1.68299	0.523599	0	0	0.877821	-0.248498	0.0181052	1.66538	0.507284	0	0	-0.83513	0.00277854	0.0440304	0.86661	-0.591854	0.325085	0.602584	0.656904	0	0	0.87932	-0.372559	0.192	0.753669	0.887977	0	0
30.3	2.7059	1.4537	-1.13568	0.669031	0.231883	0.687566	0.845362	-0.218613	-0.0758785	1.69786	0.523599	0	0	0.892978	-0.246914	0.0235385	1.68151	0.509399	0	0	-0.842017	0.00346045	0.0454034	0.880678	-0.595009	0.331981	0.611667	0.653032	0	0	0.891512	-0.373473	0.201523	0.763613	0.870433	0	0
30.31	2.6939	1.45612	-1.12505	0.668986	0.230708	0.683093	0.860653	-0.218125	-0.0710036	1.71265	0.523599	0	0	0.908553	-0.244381	0.0287677	1.69765	0.510948	0	0	-0.848177	0.0038255	0.0458026	0.894256	-0.597641	0.338345	0.621231	0.650325	0	0	0.903328	-0.374227	0.209591	0.773329	0.85161	0	0
30.32	2.67114	1.45878	-1.10484	0.668983	0.229354	0.678753	0.876928	-0.217152	-0.0672202	1.72645	0.523599	0	0	0.925076	-0.243768	0.0338106	1.71344	0.511294	0	0	-0.853942	0.00434068	0.0474197	0.908851	-0.600265	0.345376	0.631005	0.649037	0	0	0.914965	-0.374472	0.215571	0.783038	0.831979	0	0
30.33	2.64649	1.46115	-1.0823	0.66895	0.228092	0.67448	0.892423	-0.216805	-0.0642825	1.73976	0.523599	0	0	0.941638	-0.2432	0.039296	1.72913	0.510847	0	0	-0.859347	0.00526635	0.0487159	0.923271	-0.602431	0.351389	0.640519	0.652287	0	0	0.926208	-0.372947	0.213863	0.789984	0.845488	0	0
